<svg xmlns="http://www.w3.org/2000/svg" xmlns:xlink="http://www.w3.org/1999/xlink" width="100" zoomAndPan="magnify" viewBox="0 0 75 74.999997" height="100" preserveAspectRatio="xMidYMid meet" version="1.0"><defs><clipPath id="a4c0b432bc"><path d="M 12.652344 24 L 62.152344 24 L 62.152344 50 L 12.652344 50 Z M 12.652344 24 " clip-rule="nonzero"/></clipPath><clipPath id="5e96279a8c"><path d="M 12.652344 0 L 62.152344 0 L 62.152344 25 L 12.652344 25 Z M 12.652344 0 " clip-rule="nonzero"/></clipPath><clipPath id="d66b6b35fb"><path d="M 12.652344 49 L 38 49 L 38 74.25 L 12.652344 74.25 Z M 12.652344 49 " clip-rule="nonzero"/></clipPath></defs><g clip-path="url(#a4c0b432bc)"><path fill="#24a8ff" d="M 62.339844 49.714844 L 12.652344 49.714844 L 12.652344 24.871094 L 37.496094 24.871094 Z M 62.339844 49.714844 " fill-opacity="1" fill-rule="nonzero"/></g><g clip-path="url(#5e96279a8c)"><path fill="#24a8ff" d="M 62.339844 0.0273438 L 12.652344 0.0273438 L 37.496094 24.871094 L 62.339844 24.871094 Z M 62.339844 0.0273438 " fill-opacity="1" fill-rule="nonzero"/></g><g clip-path="url(#d66b6b35fb)"><path fill="#054eff" d="M 37.496094 49.714844 L 37.496094 74.558594 L 12.652344 49.714844 Z M 37.496094 49.714844 " fill-opacity="1" fill-rule="nonzero"/></g></svg>