<svg xmlns="http://www.w3.org/2000/svg" xmlns:xlink="http://www.w3.org/1999/xlink" width="100" zoomAndPan="magnify" viewBox="0 0 75 74.999997" height="100" preserveAspectRatio="xMidYMid meet" version="1.0"><defs><clipPath id="895f6533d5"><path d="M 0.160156 0.320312 L 75 0.320312 L 75 75 L 0.160156 75 Z M 0.160156 0.320312 " clip-rule="nonzero"/></clipPath></defs><g clip-path="url(#895f6533d5)"><path fill="#25b4fa" d="M 73.421875 34.332031 L 40.820312 1.730469 C 40.597656 1.507812 40.355469 1.308594 40.09375 1.132812 C 39.832031 0.957031 39.554688 0.808594 39.261719 0.6875 C 38.96875 0.566406 38.667969 0.476562 38.359375 0.414062 C 38.050781 0.351562 37.738281 0.324219 37.421875 0.324219 C 37.105469 0.324219 36.792969 0.351562 36.484375 0.414062 C 36.175781 0.476562 35.875 0.566406 35.582031 0.6875 C 35.289062 0.808594 35.011719 0.957031 34.75 1.132812 C 34.488281 1.308594 34.246094 1.507812 34.023438 1.730469 L 27.253906 8.5 L 35.84375 17.085938 C 37.839844 16.386719 40.125 16.863281 41.71875 18.457031 C 42.097656 18.835938 42.414062 19.257812 42.675781 19.726562 C 42.933594 20.199219 43.125 20.695312 43.246094 21.214844 C 43.363281 21.738281 43.410156 22.269531 43.378906 22.804688 C 43.351562 23.339844 43.25 23.859375 43.074219 24.367188 L 51.351562 32.644531 C 53.351562 31.953125 55.664062 32.398438 57.261719 34 C 57.527344 34.265625 57.765625 34.554688 57.972656 34.867188 C 58.183594 35.179688 58.359375 35.511719 58.503906 35.859375 C 58.648438 36.207031 58.753906 36.5625 58.828125 36.933594 C 58.902344 37.300781 58.9375 37.671875 58.9375 38.046875 C 58.9375 38.425781 58.902344 38.796875 58.828125 39.164062 C 58.757812 39.535156 58.648438 39.890625 58.503906 40.238281 C 58.359375 40.585938 58.183594 40.917969 57.972656 41.230469 C 57.765625 41.542969 57.527344 41.832031 57.261719 42.097656 C 56.996094 42.363281 56.707031 42.601562 56.394531 42.808594 C 56.082031 43.015625 55.753906 43.195312 55.40625 43.335938 C 55.058594 43.480469 54.699219 43.589844 54.332031 43.664062 C 53.960938 43.734375 53.589844 43.773438 53.214844 43.773438 C 52.835938 43.773438 52.464844 43.734375 52.097656 43.660156 C 51.726562 43.589844 51.371094 43.480469 51.023438 43.335938 C 50.675781 43.191406 50.347656 43.015625 50.035156 42.804688 C 49.722656 42.597656 49.433594 42.359375 49.167969 42.09375 C 47.488281 40.414062 47.070312 37.941406 47.921875 35.871094 L 40.203125 28.152344 L 40.203125 48.464844 C 40.765625 48.742188 41.269531 49.105469 41.71875 49.546875 C 41.984375 49.8125 42.222656 50.101562 42.429688 50.414062 C 42.636719 50.726562 42.816406 51.054688 42.957031 51.402344 C 43.101562 51.75 43.210938 52.109375 43.285156 52.476562 C 43.355469 52.84375 43.394531 53.21875 43.394531 53.59375 C 43.394531 53.96875 43.355469 54.339844 43.285156 54.710938 C 43.210938 55.078125 43.101562 55.4375 42.957031 55.78125 C 42.816406 56.128906 42.636719 56.460938 42.429688 56.773438 C 42.222656 57.085938 41.984375 57.375 41.71875 57.640625 C 41.453125 57.90625 41.164062 58.140625 40.851562 58.351562 C 40.539062 58.558594 40.207031 58.734375 39.863281 58.878906 C 39.515625 59.023438 39.15625 59.132812 38.789062 59.207031 C 38.417969 59.277344 38.046875 59.316406 37.671875 59.316406 C 37.296875 59.316406 36.925781 59.277344 36.554688 59.207031 C 36.1875 59.132812 35.828125 59.023438 35.480469 58.878906 C 35.136719 58.734375 34.804688 58.558594 34.492188 58.351562 C 34.179688 58.140625 33.890625 57.90625 33.625 57.640625 C 33.359375 57.375 33.121094 57.085938 32.914062 56.773438 C 32.703125 56.460938 32.527344 56.128906 32.382812 55.785156 C 32.238281 55.4375 32.128906 55.078125 32.058594 54.710938 C 31.984375 54.339844 31.949219 53.96875 31.949219 53.59375 C 31.949219 53.21875 31.984375 52.84375 32.058594 52.476562 C 32.128906 52.109375 32.238281 51.75 32.382812 51.402344 C 32.527344 51.054688 32.703125 50.726562 32.914062 50.414062 C 33.121094 50.101562 33.359375 49.8125 33.625 49.546875 C 34.179688 48.996094 34.792969 48.578125 35.5 48.296875 L 35.5 27.796875 C 34.816406 27.515625 34.179688 27.101562 33.625 26.546875 C 33.222656 26.148438 32.890625 25.695312 32.621094 25.195312 C 32.355469 24.695312 32.164062 24.164062 32.054688 23.609375 C 31.945312 23.050781 31.921875 22.488281 31.976562 21.925781 C 32.035156 21.359375 32.171875 20.816406 32.394531 20.292969 L 23.921875 11.824219 L 1.566406 34.15625 C 1.34375 34.378906 1.144531 34.625 0.96875 34.886719 C 0.792969 35.148438 0.644531 35.425781 0.523438 35.71875 C 0.402344 36.007812 0.3125 36.308594 0.25 36.621094 C 0.1875 36.929688 0.15625 37.242188 0.15625 37.558594 C 0.15625 37.875 0.1875 38.1875 0.25 38.496094 C 0.3125 38.808594 0.402344 39.109375 0.523438 39.398438 C 0.644531 39.691406 0.792969 39.96875 0.96875 40.230469 C 1.144531 40.492188 1.34375 40.734375 1.566406 40.960938 L 34.171875 73.558594 C 34.394531 73.78125 34.636719 73.980469 34.898438 74.15625 C 35.164062 74.332031 35.441406 74.480469 35.730469 74.601562 C 36.023438 74.722656 36.324219 74.8125 36.632812 74.875 C 36.941406 74.9375 37.253906 74.96875 37.570312 74.96875 C 37.886719 74.96875 38.199219 74.9375 38.507812 74.875 C 38.820312 74.8125 39.121094 74.722656 39.410156 74.601562 C 39.703125 74.480469 39.980469 74.332031 40.242188 74.15625 C 40.503906 73.980469 40.75 73.78125 40.972656 73.558594 L 73.421875 41.15625 C 73.648438 40.933594 73.847656 40.691406 74.023438 40.429688 C 74.199219 40.167969 74.347656 39.890625 74.464844 39.597656 C 74.585938 39.304688 74.679688 39.003906 74.742188 38.695312 C 74.800781 38.386719 74.832031 38.074219 74.832031 37.757812 C 74.832031 37.441406 74.800781 37.128906 74.742188 36.816406 C 74.679688 36.507812 74.585938 36.207031 74.464844 35.914062 C 74.347656 35.625 74.199219 35.347656 74.023438 35.085938 C 73.847656 34.820312 73.648438 34.578125 73.421875 34.355469 " fill-opacity="1" fill-rule="nonzero"/></g></svg>