<svg xmlns="http://www.w3.org/2000/svg" xmlns:xlink="http://www.w3.org/1999/xlink" width="100" zoomAndPan="magnify" viewBox="0 0 75 74.999997" height="100" preserveAspectRatio="xMidYMid meet" version="1.0"><defs><clipPath id="dbb44d2c00"><path d="M 2.390625 0 L 72.890625 0 L 72.890625 75 L 2.390625 75 Z M 2.390625 0 " clip-rule="nonzero"/></clipPath></defs><g clip-path="url(#dbb44d2c00)"><path fill="#24a8ff" d="M 53.574219 52.878906 C 54.863281 55.859375 54.511719 58.964844 54.53125 62.03125 C 54.550781 65.089844 54.550781 68.148438 54.53125 71.207031 C 54.511719 73.480469 52.679688 75 50.570312 74.535156 C 49.097656 74.210938 48.0625 72.929688 48.058594 71.347656 C 48.046875 67.023438 48.03125 62.699219 48.078125 58.378906 C 48.097656 56.222656 47.464844 54.355469 46.011719 52.769531 C 45.074219 51.753906 44.730469 50.589844 45.234375 49.28125 C 45.71875 48.011719 46.714844 47.421875 48.050781 47.171875 C 50.5 46.71875 52.988281 46.324219 55.351562 45.566406 C 60.8125 43.816406 64.007812 39.917969 65.175781 34.359375 C 65.890625 30.953125 66.222656 27.511719 65.347656 24.070312 C 64.785156 21.851562 63.734375 19.871094 62.171875 18.199219 C 61.027344 16.980469 60.753906 15.6875 61.320312 14.101562 C 62.164062 11.742188 62.25 9.320312 61.628906 6.726562 C 60.777344 7.019531 59.933594 7.203125 59.1875 7.578125 C 57.300781 8.535156 55.410156 9.507812 53.609375 10.613281 C 52.402344 11.355469 51.25 11.578125 49.875 11.222656 C 43.261719 9.511719 36.644531 9.515625 30.019531 11.230469 C 28.675781 11.578125 27.519531 11.40625 26.359375 10.625 C 24.097656 9.089844 21.71875 7.765625 19.074219 6.980469 C 18.839844 6.910156 18.59375 6.863281 18.300781 6.792969 C 17.808594 8.601562 17.769531 10.375 18.101562 12.152344 C 18.25 12.941406 18.488281 13.71875 18.734375 14.484375 C 19.125 15.722656 18.960938 16.855469 18.082031 17.808594 C 15.195312 20.921875 13.917969 24.597656 14.085938 28.820312 C 14.199219 31.738281 14.554688 34.609375 15.644531 37.347656 C 17.40625 41.78125 20.769531 44.472656 25.222656 45.828125 C 27.3125 46.460938 29.488281 46.847656 31.644531 47.21875 C 33.839844 47.59375 35.136719 48.941406 34.84375 50.925781 C 34.753906 51.558594 34.425781 52.246094 34 52.730469 C 32.460938 54.472656 31.804688 56.457031 31.839844 58.773438 C 31.90625 62.941406 31.871094 67.113281 31.855469 71.285156 C 31.847656 73.199219 30.476562 74.609375 28.667969 74.636719 C 26.847656 74.660156 25.441406 73.214844 25.421875 71.265625 C 25.40625 69.449219 25.417969 67.632812 25.417969 65.914062 C 23.765625 65.914062 22.179688 66 20.601562 65.894531 C 16.847656 65.652344 13.71875 64.015625 11.167969 61.292969 C 10.011719 60.0625 8.976562 58.714844 7.898438 57.410156 C 7.007812 56.335938 6.082031 55.378906 4.671875 54.890625 C 3.113281 54.351562 2.398438 52.496094 2.9375 50.929688 C 3.488281 49.316406 5.160156 48.433594 6.816406 48.855469 C 8.960938 49.40625 10.628906 50.675781 12.046875 52.3125 C 13.070312 53.496094 14.054688 54.714844 15.023438 55.949219 C 17.734375 59.394531 21.269531 60.113281 25.324219 59.140625 C 25.402344 58.0625 25.410156 57 25.566406 55.957031 C 25.71875 54.941406 26.023438 53.949219 26.265625 52.917969 C 25.109375 52.566406 23.898438 52.242188 22.714844 51.828125 C 14.066406 48.820312 9.371094 42.582031 8.035156 33.675781 C 7.507812 30.164062 7.328125 26.636719 8.140625 23.125 C 8.785156 20.332031 9.941406 17.773438 11.648438 15.46875 C 11.941406 15.074219 12.046875 14.722656 11.933594 14.226562 C 11.023438 10.21875 11.351562 6.300781 12.882812 2.484375 C 13.519531 0.902344 14.570312 0.265625 16.261719 0.1875 C 20.257812 0 23.746094 1.535156 27.03125 3.5 C 28.605469 4.445312 29.996094 4.617188 31.75 4.265625 C 37.746094 3.074219 43.761719 3.25 49.734375 4.535156 C 50.421875 4.683594 50.953125 4.613281 51.5625 4.242188 C 54.523438 2.425781 57.609375 0.863281 61.085938 0.3125 C 62.148438 0.144531 63.261719 0.144531 64.335938 0.242188 C 65.613281 0.355469 66.5 1.132812 66.988281 2.335938 C 68.5625 6.21875 68.917969 10.199219 68.015625 14.296875 C 67.945312 14.613281 68.023438 15.066406 68.210938 15.324219 C 71.375 19.65625 72.605469 24.515625 72.28125 29.824219 C 72.066406 33.347656 71.523438 36.800781 70.140625 40.078125 C 67.53125 46.277344 62.792969 50.066406 56.492188 52.054688 C 55.558594 52.351562 54.605469 52.589844 53.574219 52.878906 Z M 53.574219 52.878906 " fill-opacity="1" fill-rule="nonzero"/></g></svg>