<svg xmlns="http://www.w3.org/2000/svg" xmlns:xlink="http://www.w3.org/1999/xlink" width="100" zoomAndPan="magnify" viewBox="0 0 75 74.999997" height="100" preserveAspectRatio="xMidYMid meet" version="1.0"><path fill="#f1897f" d="M 37.5 0 C 16.789062 0 0 16.789062 0 37.5 C 0 58.210938 16.789062 75 37.5 75 C 58.210938 75 75 58.210938 75 37.5 C 75 16.789062 58.210938 0 37.5 0 Z M 37.5 72.160156 C 18.359375 72.160156 2.839844 56.640625 2.839844 37.5 C 2.839844 18.359375 18.359375 2.839844 37.5 2.839844 C 56.640625 2.839844 72.160156 18.359375 72.160156 37.5 C 72.160156 56.640625 56.640625 72.160156 37.5 72.160156 Z M 37.5 72.160156 " fill-opacity="1" fill-rule="nonzero"/><path fill="#f1897f" d="M 33.097656 55.882812 C 32.160156 55.972656 31.40625 56.074219 30.652344 56.109375 C 26.375 56.3125 23.207031 54.625 21.285156 50.691406 C 20.671875 49.441406 19.890625 48.257812 19.074219 47.125 C 18.585938 46.441406 17.898438 45.894531 17.265625 45.324219 L 17.257812 45.320312 C 16.863281 44.972656 17.039062 44.328125 17.550781 44.242188 C 18.15625 44.140625 18.71875 44.25 19.269531 44.390625 C 20.988281 44.828125 22.09375 46.046875 22.972656 47.507812 C 24.964844 50.804688 28.390625 52.179688 32.097656 51.199219 C 32.726562 51.03125 33.003906 50.761719 33.140625 50.074219 C 33.300781 49.273438 33.515625 48.484375 33.75 47.683594 C 33.820312 47.441406 33.839844 47.199219 33.808594 46.953125 C 33.777344 46.703125 33.699219 46.472656 33.574219 46.257812 C 33.449219 46.042969 33.285156 45.859375 33.085938 45.710938 C 32.882812 45.566406 32.664062 45.460938 32.421875 45.40625 L 32.398438 45.398438 C 28.554688 44.480469 25.234375 42.765625 23.09375 39.253906 C 21.949219 37.375 21.382812 35.304688 21.414062 33.148438 C 21.445312 30.703125 21.660156 28.25 21.941406 25.820312 C 22.140625 24.105469 22.933594 22.589844 24.164062 21.359375 C 24.59375 20.929688 24.632812 20.570312 24.421875 20.011719 C 23.574219 17.738281 23.722656 15.457031 24.476562 13.175781 C 24.6875 12.53125 24.988281 12.441406 25.605469 12.632812 C 27.511719 13.234375 28.929688 14.472656 30.179688 15.957031 L 30.195312 15.972656 C 30.515625 16.359375 30.917969 16.621094 31.398438 16.761719 C 31.878906 16.898438 32.359375 16.890625 32.835938 16.738281 C 36.789062 15.441406 42.789062 15.421875 46.515625 16.707031 C 46.996094 16.871094 47.480469 16.882812 47.96875 16.746094 C 48.457031 16.609375 48.859375 16.34375 49.1875 15.957031 L 49.199219 15.941406 C 50.449219 14.457031 51.875 13.226562 53.78125 12.625 C 54.417969 12.425781 54.691406 12.578125 54.894531 13.199219 C 55.636719 15.480469 55.761719 17.746094 54.957031 20.046875 C 54.847656 20.371094 54.851562 20.933594 55.050781 21.136719 C 56.757812 22.871094 57.507812 25.019531 57.695312 27.347656 C 57.878906 29.597656 58.078125 31.886719 57.867188 34.121094 C 57.324219 39.929688 53.792969 43.316406 48.417969 44.996094 C 47.960938 45.140625 47.492188 45.261719 47.015625 45.375 C 46.765625 45.433594 46.539062 45.542969 46.332031 45.699219 C 46.128906 45.855469 45.960938 46.042969 45.839844 46.269531 C 45.714844 46.496094 45.640625 46.738281 45.621094 46.996094 C 45.597656 47.25 45.628906 47.5 45.714844 47.746094 C 46.445312 49.867188 46.335938 52.132812 46.324219 54.382812 C 46.320312 54.898438 46.320312 55.417969 46.316406 55.933594 C 46.316406 56.363281 46.273438 56.789062 46.191406 57.207031 C 46.105469 57.628906 45.980469 58.035156 45.816406 58.433594 C 45.652344 58.828125 45.449219 59.203125 45.210938 59.558594 C 44.972656 59.914062 44.703125 60.246094 44.398438 60.546875 C 44.09375 60.851562 43.765625 61.121094 43.410156 61.359375 C 43.050781 61.597656 42.675781 61.796875 42.28125 61.960938 C 41.882812 62.125 41.476562 62.25 41.054688 62.332031 C 40.636719 62.414062 40.210938 62.457031 39.78125 62.457031 L 39.636719 62.457031 C 39.207031 62.457031 38.78125 62.414062 38.359375 62.332031 C 37.9375 62.246094 37.53125 62.125 37.132812 61.960938 C 36.738281 61.796875 36.359375 61.59375 36.003906 61.355469 C 35.648438 61.117188 35.316406 60.847656 35.011719 60.542969 C 34.710938 60.238281 34.4375 59.910156 34.199219 59.550781 C 33.960938 59.195312 33.761719 58.820312 33.597656 58.421875 C 33.433594 58.023438 33.308594 57.617188 33.222656 57.195312 C 33.140625 56.773438 33.097656 56.351562 33.097656 55.921875 Z M 33.097656 55.882812 " fill-opacity="1" fill-rule="nonzero"/></svg>