<svg xmlns="http://www.w3.org/2000/svg" xmlns:xlink="http://www.w3.org/1999/xlink" width="100" zoomAndPan="magnify" viewBox="0 0 75 74.999997" height="100" preserveAspectRatio="xMidYMid meet" version="1.0"><defs><clipPath id="a5a360e148"><path d="M 4.078125 0 L 70.828125 0 L 70.828125 75 L 4.078125 75 Z M 4.078125 0 " clip-rule="nonzero"/></clipPath></defs><g clip-path="url(#a5a360e148)"><path fill="#25b4fa" d="M 70.554688 0.621094 C 70.246094 0.285156 69.8125 0.09375 69.355469 0.09375 L 5.808594 0.09375 C 5.351562 0.09375 4.917969 0.285156 4.609375 0.621094 C 4.300781 0.957031 4.148438 1.410156 4.1875 1.863281 L 9.914062 65.988281 C 9.972656 66.65625 10.441406 67.222656 11.085938 67.40625 L 37.128906 74.84375 C 37.273438 74.886719 37.421875 74.90625 37.574219 74.90625 C 37.722656 74.90625 37.875 74.886719 38.019531 74.84375 L 64.078125 67.40625 C 64.726562 67.222656 65.195312 66.65625 65.253906 65.988281 L 70.976562 1.863281 C 71.015625 1.410156 70.863281 0.957031 70.554688 0.621094 Z M 56.847656 22.730469 L 26.253906 22.730469 L 26.980469 31.007812 L 56.113281 31.007812 L 53.929688 55.46875 L 37.570312 60.414062 L 37.410156 60.367188 L 21.242188 55.46875 L 20.359375 45.5 L 28.277344 45.5 L 28.625 49.371094 L 37.664062 51.261719 L 46.539062 49.367188 L 47.484375 38.898438 L 19.765625 38.898438 L 17.617188 14.820312 L 57.558594 14.820312 Z M 56.847656 22.730469 " fill-opacity="1" fill-rule="nonzero"/></g></svg>