<svg xmlns="http://www.w3.org/2000/svg" xmlns:xlink="http://www.w3.org/1999/xlink" width="100" zoomAndPan="magnify" viewBox="0 0 75 74.999997" height="100" preserveAspectRatio="xMidYMid meet" version="1.0"><defs><clipPath id="044127cadf"><path d="M 0.117188 0.117188 L 75 0.117188 L 75 75 L 0.117188 75 Z M 0.117188 0.117188 " clip-rule="nonzero"/></clipPath></defs><g clip-path="url(#044127cadf)"><path fill="#25b4fa" d="M 57.5 69.117188 C 50.96875 69.117188 46.742188 66.003906 44.683594 61.929688 L 50.410156 58.613281 C 51.921875 61.078125 53.878906 62.886719 57.347656 62.886719 C 60.261719 62.886719 62.121094 61.429688 62.121094 59.417969 C 62.121094 56.394531 58.085938 55.210938 55.238281 53.992188 C 50.160156 51.828125 46.789062 49.113281 46.789062 43.382812 C 46.789062 38.109375 50.8125 34.089844 57.097656 34.089844 C 61.566406 34.089844 64.785156 35.648438 67.097656 39.714844 L 61.617188 43.234375 C 60.414062 41.074219 59.105469 40.21875 57.097656 40.21875 C 55.035156 40.21875 53.726562 41.527344 53.726562 43.234375 C 53.726562 45.347656 55.03125 46.199219 58.050781 47.507812 C 64.371094 50.214844 69.15625 52.347656 69.15625 59.316406 C 69.160156 65.652344 64.183594 69.117188 57.5 69.117188 Z M 41.296875 58.515625 C 41.296875 65.800781 36.808594 69.65625 30.574219 69.65625 C 24.945312 69.65625 21.574219 67.5 19.914062 63.757812 L 19.816406 63.757812 L 25.539062 59.757812 C 26.644531 61.714844 27.640625 63.105469 30.050781 63.105469 C 32.363281 63.105469 33.808594 61.933594 33.808594 58.417969 L 33.808594 33.808594 L 41.296875 33.808594 Z M 0.117188 74.988281 L 74.988281 74.988281 L 74.988281 0.117188 L 0.117188 0.117188 Z M 0.117188 74.988281 " fill-opacity="1" fill-rule="evenodd"/></g></svg>