<svg xmlns="http://www.w3.org/2000/svg" xmlns:xlink="http://www.w3.org/1999/xlink" width="100" zoomAndPan="magnify" viewBox="0 0 75 74.999997" height="100" preserveAspectRatio="xMidYMid meet" version="1.0"><defs><clipPath id="0ae94b93a9"><path d="M 0 6.683594 L 54 6.683594 L 54 25 L 0 25 Z M 0 6.683594 " clip-rule="nonzero"/></clipPath><clipPath id="455ea5a411"><path d="M 22 47 L 49 47 L 49 67.433594 L 22 67.433594 Z M 22 47 " clip-rule="nonzero"/></clipPath><clipPath id="f7e98bd14d"><path d="M 48 31 L 75 31 L 75 67.433594 L 48 67.433594 Z M 48 31 " clip-rule="nonzero"/></clipPath></defs><path fill="#054eff" d="M 4.460938 16.902344 L 4.460938 42.601562 L 8.882812 40.117188 L 8.882812 19.390625 Z M 4.460938 16.902344 " fill-opacity="1" fill-rule="nonzero"/><path fill="#24a8ff" d="M 0.0390625 40.117188 L 0.0390625 9.164062 L 26.292969 24.089844 L 26.292969 29.339844 L 4.460938 16.902344 L 4.460938 42.601562 Z M 0.0390625 40.117188 " fill-opacity="1" fill-rule="nonzero"/><path fill="#054eff" d="M 53.097656 9.164062 L 53.097656 40.117188 L 35.414062 50.0625 L 30.992188 47.300781 L 48.675781 37.351562 L 48.675781 16.625 L 26.292969 29.339844 L 26.292969 24.085938 Z M 53.097656 9.164062 " fill-opacity="1" fill-rule="nonzero"/><g clip-path="url(#0ae94b93a9)"><path fill="#25b4fa" d="M 48.675781 6.679688 L 26.566406 19.113281 L 4.460938 6.679688 L 0.0390625 9.164062 L 26.292969 24.089844 L 53.097656 9.164062 Z M 48.675781 6.679688 " fill-opacity="1" fill-rule="nonzero"/></g><path fill="#24a8ff" d="M 44.253906 19.113281 L 44.253906 34.867188 L 48.675781 37.351562 L 48.675781 16.628906 Z M 44.253906 19.113281 " fill-opacity="1" fill-rule="nonzero"/><path fill="#25b4fa" d="M 22.144531 47.300781 L 44.253906 34.867188 L 48.675781 37.351562 L 30.992188 47.300781 L 48.398438 57.25 L 66.085938 47.300781 L 70.503906 49.789062 L 48.398438 62.222656 Z M 22.144531 47.300781 " fill-opacity="1" fill-rule="nonzero"/><g clip-path="url(#455ea5a411)"><path fill="#24a8ff" d="M 22.144531 47.300781 L 22.144531 52.550781 L 48.398438 67.476562 L 48.398438 62.222656 Z M 22.144531 47.300781 " fill-opacity="1" fill-rule="nonzero"/></g><path fill="#24a8ff" d="M 70.503906 49.789062 L 70.503906 34.3125 L 66.085938 31.824219 L 66.085938 47.300781 Z M 70.503906 49.789062 " fill-opacity="1" fill-rule="nonzero"/><g clip-path="url(#f7e98bd14d)"><path fill="#054eff" d="M 48.398438 62.222656 L 70.503906 49.789062 L 70.503906 34.3125 L 74.925781 31.824219 L 74.925781 52.550781 L 48.398438 67.476562 Z M 48.398438 62.222656 " fill-opacity="1" fill-rule="nonzero"/></g><path fill="#25b4fa" d="M 74.925781 31.824219 L 70.503906 34.3125 L 66.085938 31.824219 L 70.503906 29.339844 Z M 74.925781 31.824219 " fill-opacity="1" fill-rule="nonzero"/><path fill="#054eff" d="M 70.503906 29.339844 L 70.503906 24.089844 L 74.925781 21.601562 L 74.925781 26.851562 Z M 70.503906 29.339844 " fill-opacity="1" fill-rule="nonzero"/><path fill="#24a8ff" d="M 70.503906 24.089844 L 70.503906 29.339844 L 66.085938 26.851562 L 66.085938 21.601562 Z M 70.503906 24.089844 " fill-opacity="1" fill-rule="nonzero"/><path fill="#25b4fa" d="M 74.925781 21.601562 L 70.503906 24.089844 L 66.085938 21.601562 L 70.503906 19.113281 Z M 74.925781 21.601562 " fill-opacity="1" fill-rule="nonzero"/></svg>