<svg xmlns="http://www.w3.org/2000/svg" xmlns:xlink="http://www.w3.org/1999/xlink" width="100" zoomAndPan="magnify" viewBox="0 0 75 74.999997" height="100" preserveAspectRatio="xMidYMid meet" version="1.0"><path fill="#24a8ff" d="M 44.195312 37.441406 C 44.195312 33.855469 41.199219 30.945312 37.5 30.945312 C 33.800781 30.945312 30.804688 33.855469 30.804688 37.441406 C 30.804688 41.027344 33.800781 43.933594 37.5 43.933594 C 41.199219 43.933594 44.195312 41.027344 44.195312 37.441406 Z M 44.195312 37.441406 " fill-opacity="1" fill-rule="nonzero"/><path fill="#24a8ff" d="M 59.25 25.382812 C 60.664062 19.8125 62.441406 9.480469 56.175781 5.976562 C 49.9375 2.488281 41.820312 9.171875 37.535156 13.183594 C 33.261719 9.210938 24.914062 2.554688 18.652344 6.070312 C 12.417969 9.570312 14.339844 19.730469 15.789062 25.339844 C 9.972656 26.941406 0 30.390625 0 37.441406 C 0 44.46875 9.960938 48.222656 15.742188 49.820312 C 14.292969 55.460938 12.464844 65.476562 18.707031 68.96875 C 24.992188 72.484375 33.3125 65.984375 37.636719 61.929688 C 41.953125 65.964844 49.992188 72.503906 56.230469 69.003906 C 62.488281 65.492188 60.859375 55.296875 59.414062 49.65625 C 65.019531 48.050781 75 44.378906 75 37.441406 C 75 30.457031 64.976562 26.980469 59.25 25.382812 Z M 58.539062 46.667969 C 57.589844 43.753906 56.308594 40.65625 54.742188 37.457031 C 56.238281 34.332031 57.46875 31.273438 58.394531 28.378906 C 62.589844 29.558594 71.796875 32.253906 71.796875 37.441406 C 71.796875 42.675781 62.960938 45.398438 58.539062 46.667969 Z M 54.625 66.316406 C 49.96875 68.925781 43.054688 62.675781 39.871094 59.703125 C 41.984375 57.460938 44.09375 54.855469 46.15625 51.960938 C 49.78125 51.652344 53.207031 51.140625 56.3125 50.445312 C 57.332031 54.433594 59.300781 63.691406 54.625 66.316406 Z M 20.308594 66.277344 C 15.652344 63.675781 17.78125 54.738281 18.847656 50.582031 C 21.921875 51.242188 25.320312 51.714844 28.957031 52.003906 C 31.03125 54.832031 33.203125 57.433594 35.394531 59.714844 C 32.6875 62.253906 24.984375 68.890625 20.308594 66.277344 Z M 3.203125 37.441406 C 3.203125 32.183594 12.355469 29.507812 16.648438 28.332031 C 17.585938 31.292969 18.816406 34.386719 20.304688 37.515625 C 18.796875 40.691406 17.550781 43.835938 16.601562 46.828125 C 12.507812 45.695312 3.203125 42.699219 3.203125 37.441406 Z M 20.257812 8.757812 C 24.933594 6.136719 32.1875 12.523438 35.289062 15.398438 C 33.109375 17.667969 30.957031 20.25 28.902344 23.066406 C 25.375 23.382812 21.996094 23.890625 18.894531 24.574219 C 17.726562 20.050781 15.589844 11.378906 20.257812 8.757812 Z M 48.449219 26.441406 C 50.839844 26.734375 53.132812 27.125 55.285156 27.601562 C 54.640625 29.609375 53.835938 31.710938 52.886719 33.863281 C 51.511719 31.332031 50.035156 28.855469 48.449219 26.441406 Z M 37.535156 17.621094 C 39.011719 19.171875 40.492188 20.90625 41.949219 22.785156 C 38.996094 22.652344 36.039062 22.648438 33.085938 22.785156 C 34.542969 20.921875 36.035156 19.191406 37.535156 17.621094 Z M 22.140625 33.859375 C 21.207031 31.714844 20.410156 29.605469 19.757812 27.570312 C 21.898438 27.105469 24.179688 26.726562 26.558594 26.4375 C 24.964844 28.84375 23.492188 31.320312 22.140625 33.859375 Z M 26.625 48.664062 C 24.167969 48.398438 21.851562 48.039062 19.714844 47.585938 C 20.375 45.515625 21.191406 43.359375 22.144531 41.167969 C 23.515625 43.734375 25.011719 46.234375 26.625 48.664062 Z M 37.625 57.480469 C 36.105469 55.890625 34.589844 54.132812 33.113281 52.242188 C 36.082031 52.355469 39.058594 52.355469 42.027344 52.226562 C 40.566406 54.152344 39.09375 55.910156 37.625 57.480469 Z M 52.917969 41.054688 C 53.917969 43.269531 54.765625 45.414062 55.433594 47.453125 C 53.261719 47.933594 50.914062 48.320312 48.4375 48.609375 C 50.039062 46.152344 51.539062 43.632812 52.917969 41.054688 Z M 44.367188 48.984375 C 39.824219 49.300781 35.253906 49.296875 30.710938 49.011719 C 28.128906 45.355469 25.828125 41.507812 23.84375 37.515625 C 25.820312 33.53125 28.101562 29.691406 30.671875 26.039062 C 35.21875 25.707031 39.792969 25.707031 44.34375 26.042969 C 46.890625 29.691406 49.167969 33.523438 51.1875 37.46875 C 49.191406 41.453125 46.898438 45.300781 44.367188 48.984375 Z M 54.574219 8.667969 C 59.25 11.28125 57.171875 20.566406 56.148438 24.605469 C 53.039062 23.910156 49.660156 23.390625 46.121094 23.070312 C 44.058594 20.226562 41.925781 17.636719 39.78125 15.398438 C 42.921875 12.460938 49.945312 6.078125 54.574219 8.667969 Z M 54.574219 8.667969 " fill-opacity="1" fill-rule="evenodd"/></svg>