<svg xmlns="http://www.w3.org/2000/svg" xmlns:xlink="http://www.w3.org/1999/xlink" width="100" zoomAndPan="magnify" viewBox="0 0 75 74.999997" height="100" preserveAspectRatio="xMidYMid meet" version="1.0"><defs><clipPath id="59f786a202"><path d="M 15 1.671875 L 57 1.671875 L 57 58 L 15 58 Z M 15 1.671875 " clip-rule="nonzero"/></clipPath></defs><g clip-path="url(#59f786a202)"><path fill="#24a8ff" d="M 26.132812 11.664062 C 28.851562 8.226562 33.976562 6.527344 37.464844 6.441406 C 47.257812 6.253906 51.339844 18.582031 51.65625 23.484375 L 56.1875 24.859375 C 55.144531 9.832031 45.898438 1.949219 37.054688 1.949219 C 28.761719 1.945312 21.101562 8.039062 18.015625 16.976562 C 13.800781 28.890625 16.566406 40.34375 21.734375 49.507812 C 21.285156 50.105469 21.011719 51.15625 21.101562 52.160156 C 21.191406 54.914062 23.5 57.203125 26.269531 57.203125 L 26.453125 57.203125 C 29.355469 57.113281 31.574219 54.6875 31.4375 51.796875 C 31.4375 49.046875 29.082031 46.761719 26.316406 46.761719 L 26.132812 46.761719 C 25.949219 46.761719 25.679688 46.761719 25.449219 46.847656 C 21.6875 40.433594 20.101562 33.558594 20.695312 26.140625 C 21.054688 20.550781 22.871094 15.691406 26.132812 11.664062 Z M 26.132812 11.664062 " fill-opacity="1" fill-rule="nonzero"/></g><path fill="#24a8ff" d="M 4.285156 63.667969 C 7.320312 68.25 13.535156 71.179688 20.332031 71.179688 C 22.144531 71.179688 24.050781 71.046875 25.910156 70.585938 C 37.699219 68.296875 46.632812 61.148438 51.753906 50.613281 L 51.796875 50.519531 C 54.425781 50.289062 56.464844 47.949219 56.332031 45.152344 C 56.195312 42.359375 53.929688 40.117188 51.164062 40.117188 L 50.980469 40.117188 C 48.128906 40.210938 45.902344 42.636719 45.992188 45.527344 C 46.085938 46.992188 46.675781 48.183594 47.488281 49.050781 C 44.316406 55.285156 39.558594 59.863281 32.347656 63.714844 C 27.496094 66.277344 22.375 67.242188 17.386719 66.554688 C 13.214844 65.964844 9.953125 64.078125 7.957031 61.058594 C 4.96875 56.472656 4.695312 51.53125 7.1875 46.582031 C 9.003906 43.007812 11.722656 40.398438 13.539062 39.109375 C 13.082031 37.921875 12.539062 35.90625 12.265625 34.398438 C -1.160156 44.105469 0.203125 57.390625 4.285156 63.667969 Z M 4.285156 63.667969 " fill-opacity="1" fill-rule="nonzero"/><path fill="#24a8ff" d="M 72.46875 61.648438 C 75.183594 56.148438 74.960938 46.898438 68.023438 38.96875 L 67.980469 39.058594 C 60.957031 30.71875 50.617188 26.140625 38.824219 26.140625 L 37.28125 26.140625 C 36.515625 24.445312 34.75 23.386719 32.753906 23.386719 L 32.617188 23.386719 C 29.761719 23.386719 27.539062 25.867188 27.632812 28.75 C 27.722656 31.496094 30.035156 33.792969 32.800781 33.792969 L 33.023438 33.792969 C 35.066406 33.699219 36.835938 32.414062 37.558594 30.585938 L 39.238281 30.585938 C 46.222656 30.585938 52.839844 32.644531 58.871094 36.675781 C 63.492188 39.746094 66.804688 43.777344 68.664062 48.589844 C 70.292969 52.527344 70.203125 56.378906 68.527344 59.585938 C 65.945312 64.625 61.589844 67.285156 55.835938 67.285156 C 52.207031 67.285156 48.671875 66.140625 46.855469 65.316406 C 45.769531 66.226562 43.953125 67.738281 42.636719 68.660156 C 46.625 70.488281 50.664062 71.542969 54.558594 71.542969 C 63.402344 71.542969 69.972656 66.507812 72.46875 61.648438 Z M 72.46875 61.648438 " fill-opacity="1" fill-rule="nonzero"/></svg>