<svg xmlns="http://www.w3.org/2000/svg" xmlns:xlink="http://www.w3.org/1999/xlink" width="100" zoomAndPan="magnify" viewBox="0 0 75 74.999997" height="100" preserveAspectRatio="xMidYMid meet" version="1.0"><path fill="#24a8ff" d="M 64.421875 41.347656 C 61.824219 41.363281 59.574219 41.984375 57.691406 42.914062 C 56.992188 41.535156 56.296875 40.332031 56.179688 39.429688 C 56.050781 38.386719 55.890625 37.75 56.050781 36.5 C 56.207031 35.253906 56.933594 33.484375 56.933594 33.335938 C 56.921875 33.207031 56.773438 32.566406 55.28125 32.554688 C 53.789062 32.539062 52.496094 32.84375 52.351562 33.238281 C 52.089844 33.960938 51.882812 34.703125 51.726562 35.457031 C 51.464844 36.820312 48.738281 41.652344 47.183594 44.191406 C 46.675781 43.207031 46.238281 42.335938 46.152344 41.640625 C 46.023438 40.59375 45.863281 39.957031 46.023438 38.707031 C 46.179688 37.460938 46.90625 35.691406 46.90625 35.546875 C 46.894531 35.414062 46.746094 34.777344 45.253906 34.761719 C 43.757812 34.746094 42.46875 35.050781 42.324219 35.445312 C 42.175781 35.835938 42.015625 36.765625 41.699219 37.664062 C 41.394531 38.5625 37.765625 46.632812 36.824219 48.734375 C 36.34375 49.808594 35.921875 50.664062 35.617188 51.246094 C 35.3125 51.828125 35.605469 51.289062 35.574219 51.347656 L 35.167969 52.117188 L 35.167969 52.132812 C 34.964844 52.496094 34.746094 52.84375 34.648438 52.84375 C 34.574219 52.84375 34.429688 51.871094 34.675781 50.535156 C 35.214844 47.734375 36.519531 43.367188 36.503906 43.207031 C 36.503906 43.136719 36.75 42.367188 35.664062 41.972656 C 34.601562 41.582031 34.226562 42.234375 34.136719 42.234375 C 34.050781 42.234375 33.976562 42.46875 33.976562 42.46875 C 33.976562 42.46875 35.152344 37.546875 31.730469 37.546875 C 29.582031 37.546875 26.621094 39.886719 25.15625 42.015625 L 17.753906 46.066406 L 17.59375 45.890625 C 13.449219 41.460938 5.773438 38.328125 6.089844 32.378906 C 6.207031 30.21875 6.960938 24.515625 20.832031 17.609375 C 32.191406 11.949219 41.292969 13.503906 42.875 16.957031 C 45.125 21.886719 38.011719 31.058594 26.203125 32.382812 C 21.703125 32.890625 19.339844 31.148438 18.742188 30.496094 C 18.117188 29.8125 18.03125 29.785156 17.800781 29.914062 C 17.421875 30.117188 17.652344 30.726562 17.800781 31.089844 C 18.148438 32.003906 19.597656 33.628906 22.066406 34.441406 C 24.226562 35.152344 29.507812 35.546875 35.894531 33.078125 C 43.046875 30.308594 48.632812 22.617188 46.992188 16.191406 C 45.324219 9.644531 34.472656 7.5 24.210938 11.140625 C 18.105469 13.316406 11.5 16.710938 6.742188 21.164062 C 1.070312 26.445312 0.171875 31.058594 0.546875 32.976562 C 1.867188 39.808594 11.285156 44.265625 15.054688 47.558594 L 14.535156 47.847656 C 12.648438 48.777344 5.464844 52.535156 3.667969 56.511719 C 1.636719 61.007812 3.984375 64.246094 5.550781 64.679688 C 10.398438 66.03125 15.359375 63.605469 18.046875 59.617188 C 20.714844 55.625 20.394531 50.445312 19.164062 48.082031 L 19.117188 47.992188 L 20.597656 47.125 C 21.554688 46.558594 22.5 46.035156 23.328125 45.585938 C 22.863281 46.847656 22.527344 48.34375 22.355469 50.519531 C 22.152344 53.070312 23.195312 56.378906 24.574219 57.6875 C 25.183594 58.253906 25.910156 58.265625 26.359375 58.265625 C 27.957031 58.265625 28.679688 56.945312 29.480469 55.367188 C 30.464844 53.433594 31.335938 51.199219 31.335938 51.199219 C 31.335938 51.199219 30.246094 57.25 33.222656 57.25 C 34.3125 57.25 35.398438 55.84375 35.890625 55.117188 L 35.890625 55.132812 C 35.890625 55.132812 35.921875 55.089844 35.980469 54.988281 C 36.09375 54.8125 36.152344 54.710938 36.152344 54.710938 L 36.152344 54.683594 C 36.589844 53.925781 37.5625 52.199219 39.011719 49.34375 C 40.882812 45.65625 42.683594 41.042969 42.683594 41.042969 C 42.683594 41.042969 42.859375 42.175781 43.394531 44.03125 C 43.714844 45.136719 44.410156 46.339844 44.949219 47.515625 L 44.25 48.472656 L 44.265625 48.488281 C 43.894531 48.980469 43.511719 49.464844 43.117188 49.9375 C 41.640625 51.707031 39.867188 53.726562 39.636719 54.304688 C 39.359375 54.988281 39.417969 55.496094 39.957031 55.902344 C 40.347656 56.191406 41.042969 56.25 41.785156 56.191406 C 43.117188 56.105469 44.046875 55.769531 44.511719 55.566406 C 45.355469 55.265625 46.136719 54.855469 46.863281 54.332031 C 48.3125 53.261719 49.199219 51.734375 49.113281 49.703125 C 49.066406 48.585938 48.707031 47.484375 48.253906 46.441406 L 48.648438 45.859375 C 50.941406 42.507812 52.710938 38.820312 52.710938 38.820312 C 52.710938 38.820312 52.882812 39.953125 53.421875 41.8125 C 53.699219 42.753906 54.25 43.785156 54.742188 44.800781 C 52.59375 46.554688 51.246094 48.585938 50.78125 49.921875 C 49.925781 52.386719 50.589844 53.507812 51.855469 53.765625 C 52.421875 53.882812 53.234375 53.621094 53.84375 53.359375 C 54.597656 53.113281 55.511719 52.695312 56.351562 52.070312 C 57.804688 50.996094 59.195312 49.5 59.125 47.484375 C 59.082031 46.554688 58.835938 45.640625 58.5 44.769531 C 60.328125 44.015625 62.695312 43.582031 65.695312 43.941406 C 72.15625 44.699219 73.429688 48.730469 73.183594 50.414062 C 72.9375 52.097656 71.585938 53.027344 71.136719 53.316406 C 70.6875 53.59375 70.542969 53.691406 70.585938 53.894531 C 70.644531 54.203125 70.847656 54.1875 71.238281 54.128906 C 71.777344 54.042969 74.632812 52.75 74.75 49.644531 C 74.925781 45.652344 71.136719 41.300781 64.421875 41.34375 Z M 14.621094 58.136719 C 12.488281 60.472656 9.484375 61.355469 8.210938 60.601562 C 6.832031 59.804688 7.367188 56.367188 9.996094 53.882812 C 11.589844 52.375 13.664062 50.984375 15.03125 50.125 L 16.351562 49.328125 C 16.4375 49.269531 16.496094 49.242188 16.496094 49.242188 C 16.597656 49.183594 16.714844 49.109375 16.828125 49.039062 C 17.800781 52.578125 16.875 55.683594 14.625 58.136719 Z M 30.222656 47.53125 C 29.480469 49.34375 27.914062 54 26.972656 53.738281 C 26.160156 53.519531 25.667969 49.996094 26.8125 46.511719 C 27.390625 44.757812 28.625 42.667969 29.351562 41.855469 C 30.527344 40.550781 31.804688 40.113281 32.125 40.648438 C 32.5 41.347656 30.6875 46.394531 30.222656 47.527344 Z M 43.09375 53.679688 C 42.773438 53.839844 42.484375 53.957031 42.351562 53.871094 C 42.25 53.8125 42.484375 53.59375 42.484375 53.59375 C 42.484375 53.59375 44.09375 51.867188 44.730469 51.070312 L 45.996094 49.457031 L 45.996094 49.632812 C 45.996094 51.722656 43.992188 53.113281 43.09375 53.679688 Z M 53.015625 51.417969 C 52.785156 51.242188 52.8125 50.707031 53.597656 49.023438 C 53.902344 48.355469 54.597656 47.238281 55.800781 46.179688 C 55.945312 46.613281 56.035156 47.035156 56.019531 47.425781 C 56.003906 50.039062 54.148438 51.011719 53.015625 51.417969 Z M 53.015625 51.417969 " fill-opacity="1" fill-rule="nonzero"/></svg>