<svg xmlns="http://www.w3.org/2000/svg" xmlns:xlink="http://www.w3.org/1999/xlink" width="100" zoomAndPan="magnify" viewBox="0 0 75 74.999997" height="100" preserveAspectRatio="xMidYMid meet" version="1.0"><defs><clipPath id="fee5a85934"><path d="M 0.101562 0.101562 L 75 0.101562 L 75 75 L 0.101562 75 Z M 0.101562 0.101562 " clip-rule="nonzero"/></clipPath></defs><g clip-path="url(#fee5a85934)"><path fill="#25b4fa" d="M 0.101562 74.996094 L 74.996094 74.996094 L 74.996094 0.101562 L 0.101562 0.101562 Z M 0.101562 74.996094 " fill-opacity="1" fill-rule="nonzero"/></g><path fill="#ffffff" d="M 16.660156 37.792969 L 16.636719 40.863281 L 26.386719 40.863281 L 26.386719 68.5625 L 33.28125 68.5625 L 33.28125 40.863281 L 43.027344 40.863281 L 43.027344 37.855469 C 43.027344 36.191406 42.992188 34.800781 42.945312 34.765625 C 42.910156 34.71875 36.976562 34.695312 29.785156 34.707031 L 16.695312 34.742188 Z M 16.660156 37.792969 " fill-opacity="1" fill-rule="nonzero"/><path fill="#ffffff" d="M 60.535156 34.65625 C 62.4375 35.128906 63.886719 35.976562 65.21875 37.351562 C 65.90625 38.089844 66.929688 39.433594 67.011719 39.753906 C 67.035156 39.851562 63.78125 42.035156 61.804688 43.261719 C 61.734375 43.308594 61.449219 43 61.128906 42.527344 C 60.167969 41.121094 59.15625 40.515625 57.609375 40.410156 C 55.339844 40.253906 53.875 41.441406 53.886719 43.429688 C 53.886719 44.011719 53.972656 44.355469 54.210938 44.832031 C 54.710938 45.867188 55.636719 46.484375 58.550781 47.746094 C 63.910156 50.050781 66.207031 51.570312 67.632812 53.734375 C 69.222656 56.148438 69.582031 60 68.5 62.863281 C 67.3125 65.980469 64.363281 68.09375 60.214844 68.796875 C 58.929688 69.023438 55.886719 68.988281 54.503906 68.738281 C 51.5 68.203125 48.644531 66.71875 46.886719 64.769531 C 46.195312 64.007812 44.855469 62.023438 44.9375 61.878906 C 44.972656 61.832031 45.28125 61.640625 45.625 61.4375 C 45.960938 61.25 47.222656 60.523438 48.410156 59.832031 L 50.558594 58.585938 L 51.011719 59.25 C 51.640625 60.214844 53.023438 61.53125 53.851562 61.976562 C 56.242188 63.234375 59.523438 63.054688 61.140625 61.605469 C 61.832031 60.972656 62.113281 60.320312 62.113281 59.359375 C 62.113281 58.492188 62.011719 58.109375 61.554688 57.457031 C 60.972656 56.625 59.785156 55.921875 56.410156 54.460938 C 52.546875 52.796875 50.882812 51.761719 49.359375 50.121094 C 48.480469 49.167969 47.648438 47.648438 47.304688 46.375 C 47.015625 45.320312 46.945312 42.667969 47.171875 41.597656 C 47.96875 37.863281 50.789062 35.261719 54.851562 34.488281 C 56.171875 34.242188 59.238281 34.332031 60.535156 34.65625 Z M 60.535156 34.65625 " fill-opacity="1" fill-rule="nonzero"/></svg>